<svg id="Layer_1" data-name="Layer 1" xmlns="http://www.w3.org/2000/svg" viewBox="0 0 437.08 490"><title>ekot</title><path d="M590,649l-9.16-17.35,7.44-.86V551.25c-2.9,2.65-5.27,4.79-7.62,7s-4.34,4.75-7,6.44c-11.56,7.5-10,18.68-9,30l6,.67V615h-19.8V595.41l6.92-.73c0-4.61.28-9.23-.06-13.8-.52-6.95,2.29-12.22,7.2-16.76,5.86-5.43,11.48-11.14,17.48-16.42a17.77,17.77,0,0,0,6.39-14.49c-.16-9.83,0-19.66-.21-29.48,0-1.5-.94-3.8-2.09-4.33-7.19-3.29-12.06-8.95-15.84-15.47-3.88-6.7-7-13.82-10.5-20.75l1-1.62h28.93c0,10.17,0,20.79,0,31.41,0,3,.54,5,4.88,3.71,0-8,0-16.29,0-24.54,0-12,0-12,12.14-11.77,5.14.08,10.28,0,16.48,0-1.21,3.56-1.89,6-2.87,8.39-4,9.59-8.74,18.72-16.47,25.94-1,.91-2.09,1.66-3,2.61-1.78,1.84-6.09.55-5.89,4.87.28,6-1.28,12.47,3.94,17.41,6.17,5.84,12.17,11.86,18.49,17.53,5.82,5.22,9.27,11.2,8.37,19.29-.29,2.63.11,5.34-.07,8-.21,3.18.44,5.48,3.3,7.64a9.74,9.74,0,0,1,.84,14.59,10.12,10.12,0,0,1-14.73,0c-3.95-4.16-3.85-11.14.87-14.61,2.92-2.15,2.94-4.58,3.37-7.61,1.66-11.69-2.16-20.67-11.75-27.62-4.23-3.06-7.72-7.14-12.28-11.45v105.4l7.33,1L594,649Z" transform="translate(-375.21 -159)"/><path d="M730,159c1.93,7.12,1.67,7.55-5.25,8.63-26.54,4.16-45.25,25.68-45.61,52.49,0,1.47,0,2.94,0,4.28-7.43,2.33-8.12,1.82-8-5.49.53-28.68,20.36-52.61,48.6-58.69,1.43-.31,2.82-.81,4.23-1.22Z" transform="translate(-375.21 -159)"/><path d="M673.14,460.94l4.9-9.29c-3.05-2.67-5.36-1.89-6.78,1.38-2.63,6.06-6.76,7.4-13.14,5.93s-13.23-1.47-19.83-2.37c-2.79-.38-6.51,1-7.81-3.38-.1-.32-2.71-.13-4.05.21-2.22.56-4.34,2-6.53,2.08-8.11.26-16.23.1-25,.1,0-5.33,0-9.44,0-13.55,0-11.16.15-22.33-.11-33.49-.05-2.32-1.63-4.61-2.51-6.91l-2,.51v53.12c-12.84-1.72-25.26,4.7-37.46-3.14-.24,1.42-.39,2-.42,2.56a19,19,0,0,0,.12,2c-11.55,1.65-22.89,3.37-34.27,4.75-1.26.15-3.16-1.35-4.09-2.59-10.2-13.62-17-28.94-22.14-45.07-.5-1.57-1-3.15-1.54-4.92-4.17,1.54-4,4.37-2.92,7.66a167.86,167.86,0,0,0,19.3,41c3.39,5.15,3,4.95-2.93,7-8.2,2.81-14.44.5-20.26-5.18-7.61-7.42-15.39-14.67-23.18-22.07-5.77,3.39-12.9,6-17.74,10.83-5.62,5.65-12.87,7.44-19.34,10.57-5,2.44-12.54,3-17.78,1.18-14-5-25-14.64-29-29.42-2-7.58-1.7-16.19-.65-24.1A91.24,91.24,0,0,1,383,381.1c3.69-8.19,9.38-15.51,14.45-23a51.79,51.79,0,0,1,7.31-8.58c8.1-7.68,16.4-15.16,24.61-22.71-8.4-8.85-9.79-21.2-3.43-32.82,3-5.51,5.21-11.52,8.68-16.7a168.55,168.55,0,0,1,14.7-18.63c7.56-8.41,15.34-16.66,23.54-24.43,3.83-3.64,8.72-6.27,13.39-8.88,4.26-2.38,9-4,13.34-6.15,11.17-5.61,21.84-3.2,32.27,2,1.38.69,2.07,2.77,3.33,4.57,10.17-7,20.44-13.44,34.22-13.48a44.34,44.34,0,0,1-1.84,6.07c-4.11,8.71-8.7,17.22-12.39,26.1-1.54,3.7-2.9,5.55-7.06,4.68a75.4,75.4,0,0,0-8.67-.81l-1.4,4.82,13,1.5c-.16,1.62-.21,3.07-.47,4.47-2.82,15-5.82,30.06-8.41,45.14-.55,3.22-1.52,4.33-4.7,3.87-7.58-1.1-15.19-1.93-22.76-3.1-3.09-.48-5.25-.08-6.07,4.23,6,.92,12,1.85,17.92,2.73,1.65.24,3.31.34,5,.54,9.79,1.15,14.76-3.11,16.45-13,2.31-13.44,5.27-26.77,7.76-40.19.66-3.55,2.37-4.41,5.79-4.31,9.29.25,18.6.08,28.61.08,0,3.62,0,6.06,0,8.49,0,13.83-.18,27.67.12,41.49.1,4.56-1.42,5.83-5.71,5.44s-8.32-.2-12.49-.2c-3.8,0-3.8.05-3.75,5.06h21.5v35.57H568.78c-1.6,3.56-.89,5.09,2.73,5,4.66-.09,9.33-.12,14,0a63,63,0,0,1,6.92,1c.76-3,2.26-6.34,2.37-9.73.33-10.31.12-20.63.12-31.44l42.44-2.59,1.9,37.24c-4.51.53-8.23.86-11.88,1.53-.44.08-.55,2-1,3.73H638.7v16.55l1.87.36,4.71-15.65,10.27-3.86-.33-1.82-10.73-.47-1.79-38,50.13-9c1.51,10.62,3,20.78,4.36,31,.63,4.84.48,4.86,6.08,5.1-1-7.66-1.82-15.2-2.89-22.71-.54-3.78-1.46-7.51-2.25-11.26-.57-2.72.23-4.15,3.14-5.05,10.17-3.15,20.28-6.55,30.34-10.06,3.56-1.24,5.92-1,7.51,2.91,3.53,8.74,7.35,17.37,11.43,26.48-1.46-7,4.06-9.54,7.85-13.11,5.09-4.79,10.32-9.45,15.68-13.94,1.64-1.37,3.92-2,5.91-2.93.46,2,1.3,3.92,1.32,5.88.13,12.5.08,25,.11,37.49,0,1.64.14,3.28.25,5.68h22.51c7.64,0,7.65,0,7.66,7.77,0,6-.14,12,0,18,.11,3.68-1.42,5.14-5,5.09-6.5-.09-13,0-19.5,0h-6.52c.57,11.37.17,22.26,1.91,32.79,1.83,11.08,12.13,18.67,23.89,19.14,4.53.18,5.75,1.83,5.6,6-.23,6.32-.32,12.68,0,19,.26,4.87-1.83,5.92-6.24,5.68-31.55-1.74-54.7-25.59-55.27-57.14-.05-2.94,0-5.88,0-8.82l-1.23-.21c-.43,2.46-1.26,4.92-1.24,7.37.12,24-10.78,41.15-31.48,52.87-5.4,3.06-10,7.64-14.62,11.94-5.1,4.79-10.33,7.25-17.42,4.56C681.43,461.93,677.69,461.78,673.14,460.94ZM530.61,338.79c-2.39,1.59-3.8,2.17-4.72,3.19-5.57,6.16-11,12.45-16.54,18.65-6.34,7.09-12.43,14.45-19.19,21.11-7.11,7-15,13.27-22.38,20-7.13,6.42-13.58,13.57-22.33,18.09-9.21,4.76-17.8,10.47-29.09,9.49-4.51-.39-7.26-2.23-8.28-5.63a25.18,25.18,0,0,1-.75-12.08,124.84,124.84,0,0,1,7-22.56c5.06-12,13.39-21.29,20.55-31.57,2.52-3.61,6-6.55,9.06-9.79,3.49-3.73,6.69-7.79,10.54-11.1,4.75-4.09,10-7.65,15.1-11.29,6.22-4.43,12.25-9.32,20.14-10.56,10.21-1.61,14.65-9,17.18-17.79,2.4-8.33-1.55-12.38-9.64-9.51-8.88,3.15-17.41,7.34-25.93,11.42-4.78,2.29-9.18,5.37-13.85,7.91-2.37,1.29-5.34,1.08-5.15-2.06.22-3.46,1.75-7,3.35-10.16,1.77-3.52,4.32-6.63,6.45-10,7-11.07,14.34-21.85,25-30,3.58-2.75,6.35-6.55,9.58-9.77a12.33,12.33,0,0,1,3.46-2.4,62.84,62.84,0,0,1,7.26-2.88,88,88,0,0,1,12.22-3.37c1.32-.22,3.71,1.3,4.39,2.64,3.39,6.63,1.64,12.79-4.48,17.33-6.32,4.68-7.59,12.1-3.05,17.9,2.45,3.14,6.73,3,8.1-.28,1.83-4.41,3.83-8.78,5.3-13.31,3.17-9.79,5-19.76.65-29.68a14.91,14.91,0,0,0-4.7-5.26c-6.22-4.75-13.52-4.18-20.3-2.42-4.74,1.23-10,3.7-13,7.32-2.41,2.95-3.47,4.8-6.7,2.82-4.6,3.37-9.28,6-12.94,9.64-9.68,9.62-19.54,19.2-28.13,29.76-5.54,6.81-8.79,15.45-13.41,23.07a24.82,24.82,0,0,0-3.14,17.79c.54,3,2.38,6.9,4.78,8.11,6.22,3.13,7.72,6,0,11.22-6.22,4.22-12.54,8.49-18,13.62a98.31,98.31,0,0,0-15,17.52c-7.07,10.83-14.26,21.74-16.84,34.86-2.77,14.11-5.4,28.1,4.5,40.76,6.5,8.31,14,14.9,25.37,14.91a18.1,18.1,0,0,0,6.31-.73c5.38-2,11.56-3.44,15.56-7.12,2.5-2.3,3.9-4.24,7.62-5.71,7.71-3,15.12-7.6,19.83-15.28,2.05-3.35,4.08-7.25,9.31-7,1.26.05,2.76-1.64,3.85-2.81,2.15-2.32,4-4.89,6.12-7.25q22.37-25,44.78-50C531.16,353.19,530.93,346.79,530.61,338.79Zm92.61,1.8c-6.53,0-12.48-.15-18.41.15-1,0-2.48,1.91-2.72,3.14-3.53,17.84-14.87,27.14-32.76,27.31-5.22.05-6.44-1.83-6.39-6.7.23-19.82.09-39.65.09-59.48,0-1.91,0-3.82,0-7-6.46,5.8-12.06,10.44-17.14,15.6a12.22,12.22,0,0,0-3.47,7.56c-.26,26.49-.18,53-.18,79.47q0,21.24.05,42.48c0,2-.73,4.69,2.77,4.7,5.78,0,11.56,0,17.7,0,.11-2.21.26-3.83.26-5.44q0-18,0-36c0-15.21,0-15.21,15.44-13.83,17.17,1.53,29,14.25,29.18,31.53.08,6.66.11,13.33,0,20,0,2.73.83,3.93,3.73,3.81,4.32-.18,8.67-.19,13,0,3.23.15,4.46-1,4.37-4.27-.18-6.83-.08-13.66,0-20.49.16-16.69-6.55-30-19.79-40-3.76-2.83-3.61-4.52-.25-7.62C618.51,366.43,622.93,354.89,623.22,340.59Zm120.27,55.22a52.12,52.12,0,0,0-52.56-51.73c-28.82.21-51.37,23.54-51.16,52.93.21,27.94,23.78,51,51.84,50.78C720.28,447.53,743.65,424.11,743.49,395.81Zm33.14-98.63c-7.35,6.58-13.47,11.95-19.42,17.5a5.89,5.89,0,0,0-1.61,3.9c0,27.3-.59,54.63.32,81.91.82,24.4,23.23,45.85,47.59,47.11,1.23.06,3.6-1.51,3.65-2.43.33-5.93.17-11.88.17-17.87-1.72-.33-2.84-.56-4-.76-15.72-2.75-26-14.31-26.62-30.3-.31-8.81,0-17.65-.13-26.47-.05-3.47,1.41-4.82,4.79-4.66,3.16.15,6.33.14,9.49,0,5.24-.21,12.58,1.38,15.14-1.39,2.71-2.93.7-10.08,1.06-15.37.25-3.67-1.34-4.52-4.66-4.42-6.32.2-12.65.07-19,.07-6.82,0-6.83,0-6.84-7.05,0-5,0-10,0-15C776.63,314.21,776.63,306.44,776.63,297.18ZM431.17,371.31c-2.26,3.53-5,7.23-7.12,11.26-5,9.46-9.45,19-11.24,29.83-1.52,9.22.73,12.51,9.86,10.42,4.17-1,8.14-2.9,12.13-4.56,3.57-1.5,7-3.23,9.73-4.48Zm14.44-15.23h32.19l2,25.94c4-.6,4.94-2.41,4.63-5.66-.65-6.68-.93-13.4-1.39-20.48,7.18,0,13.34.27,19.46-.14,2.24-.15,4.37-1.94,6.56-3l-.69-1.87H482.95l2-28-1.63-.32c-8.23,7.74-2.4,19.14-6.23,28.5-7.94,0-16.07.13-24.19-.06C449.58,350.89,447.15,351.68,445.61,356.07Zm70.66-114.76c-3.21,1.82-7.29,3.28-10.13,6-1.95,1.88-1.92,5.67-3.22,8.39-4.25,8.87-8.7,17.65-13.08,26.46l2.2,1.55c1.83-1.94,4.14-3.62,5.41-5.88,4.65-8.26,8.88-16.75,13.46-25,.67-1.22,2.33-2,3.65-2.74,1.69-1,3.5-1.72,5.1-2.49ZM492.5,405.86a8.64,8.64,0,0,0,1.83.14c13.38-2.46,26.76-5,40.15-7.42,3.78-.69,3.23-2.85,2-6-11.37,2.06-22.6,4.23-33.88,6.08A13,13,0,0,0,492.5,405.86Zm143.72,4h-1.59l-1.57,31.87,1.84.08C635.73,431.21,642.51,420.88,636.22,409.88Zm92-58.83-.74,1.61c2.19,1.07,4.31,2.8,6.59,3.05a76.28,76.28,0,0,0,13.34,0c1.13-.07,2.16-1.62,3.24-2.48-1-.74-2.08-2.08-3.15-2.12C741.06,350.94,734.63,351,728.2,351ZM623.8,389.79c.65,5.62,4.59,5.79,8.37,5.76,1,0,2.67-1.45,2.68-2.25a3.7,3.7,0,0,0-2.21-2.85A72,72,0,0,0,623.8,389.79Z" transform="translate(-375.21 -159)"/><path d="M642.73,307.68l-10.06-53.73c3.35-.48,7.2-1,11.07-1.58,6.75-.94,13.54-1.7,20.25-2.86,2.92-.5,4.6.31,6.18,2.73a158.11,158.11,0,0,1,19.19,41.53c.67,2.22,1.65,4.69-2,5.39Z" transform="translate(-375.21 -159)"/><path d="M675.18,248.47c1.58-.88,1.85-1.16,2.15-1.18,14.66-1,25.51-9.31,35.93-18.57,5.79-5.14,6-5,11.47.05,8,7.27,8,7.27,2.1,16.46-2.77,4.35-5.4,8.79-8.36,13-1.74,2.47-1.6,4.12.43,6.43,4,4.48,7.64,9.22,11.16,14,3.33,4.57,2.84,6.24-2.3,8-10.31,3.58-20.7,7-31.18,10.46-3.49-9.14-6.37-17.62-10-25.78C683.18,263.57,679,256,675.18,248.47Z" transform="translate(-375.21 -159)"/><path d="M595.24,256c9.72-.59,19-1.22,28.29-1.62,1.13,0,3.08,1,3.35,1.91A274.21,274.21,0,0,1,636.58,308l-41.34,2.62Zm24.7,34c-.59-7.63,6.4-2.45,9.17-5.58-3.75-3.69-7.43-7.44-11.28-11a39.34,39.34,0,0,0-4.9-3.38l-9.32-11.4-1.19.78v37.62c2.42-2.09,4.25-3.62,6-5.22,2-1.83,3.64-2.92,4.86.92,1,3.15,2.72,6.07,4.14,9.09,2,4.26,5.78,5,8.37,1.39.65-.9,1.05-2.74.57-3.57C624.46,296.35,622.13,293.25,619.94,290.06Z" transform="translate(-375.21 -159)"/><path d="M560.18,250.06c0-2.21-.35-3.64.05-4.82,3.77-10.9,8.61-21.24,16.19-30.13,3.47-4.07,7.6-5.65,13.22-4.4v39.35Z" transform="translate(-375.21 -159)"/><path d="M616.11,211.23c5.39,2,11,3.6,16.13,6C643,222.39,652,230,659.89,238.91c3.76,4.3,3.29,5.69-2.43,6.5-8,1.15-16.13,2.13-24.22,2.86a5,5,0,0,1-3.89-2.37c-4.58-9.36-8.93-18.84-13.25-28.32a30.17,30.17,0,0,1-1.33-4.92Z" transform="translate(-375.21 -159)"/><path d="M623.59,249.39c-8.38.37-16.49.74-24.6,1.06-1.13,0-2.27-.12-4.09-.22,0-6.74,0-13.31,0-19.88s0-12.89,0-19.53c4.11-.81,7.51-.88,10.44,2.14,9.38,9.68,14.63,21.58,18.53,34.21C624,247.58,623.76,248.11,623.59,249.39Z" transform="translate(-375.21 -159)"/><path d="M523.19,465.93c9.8-1.16,19.33-2.38,28.89-3.3a4.75,4.75,0,0,1,3.64,2.23c4.23,8.07,8.27,16.24,12.23,24.45.72,1.5.8,3.32,1.2,5.05C554.21,495.83,523.64,477.22,523.19,465.93Z" transform="translate(-375.21 -159)"/><path d="M659.73,464.2c-.56,10.78-31,31.08-45,30.31.53-2.08.74-4.15,1.58-5.92,3.75-7.94,7.82-15.73,11.47-23.71,1.12-2.45,2-3.64,5-3.27C641.64,462.7,650.57,463.35,659.73,464.2Z" transform="translate(-375.21 -159)"/><path d="M736.14,283.24v-7.11c15.34-1.27,28.76-6.68,39-18.57,10.06-11.71,14.16-25.39,12.94-40.5,7.16-2.37,7.64-2,7.66,4.75.1,30.66-21.3,55.94-51.54,60.82C741.76,283,739.26,283,736.14,283.24Z" transform="translate(-375.21 -159)"/><path d="M736.42,267.57v-6.36c6.38-2.42,12.67-3.9,18-7,11.2-6.56,17.5-16.78,18-29.88.22-5.18,2.07-6.89,6.91-5.91C785.57,240.52,760.44,269.56,736.42,267.57Z" transform="translate(-375.21 -159)"/><path d="M687.36,224.13c-1.35-11.77,2-22,8.76-31,7.63-10.13,18-16,30.64-17.8,2.15-.3,4.38-.85,4.64,2.61.21,2.81-.53,4.12-3.56,4.69-20.19,3.78-32,17-32.92,37.16C694.66,225.89,690.89,223.87,687.36,224.13Z" transform="translate(-375.21 -159)"/><path d="M731.7,191v5.2c-5.16,2.87-10.49,4.64-14.07,8.19a25.3,25.3,0,0,0-6.7,12.88c-.93,5.38-3.16,6.26-7.61,5.29C699.3,208.09,716.05,189.14,731.7,191Z" transform="translate(-375.21 -159)"/><path d="M764.27,220.69c1.81,15.85-13.14,32.33-27.51,30.74-1.11-4.21-.48-6.84,4.6-8.22,8.58-2.33,13.88-8.65,15.24-17.28C757.4,220.74,760,220.39,764.27,220.69Z" transform="translate(-375.21 -159)"/><path d="M655,221.47c3.94,1.63,8,3.07,11.8,4.95,5.67,2.79,11.24,5.79,16.73,8.93a5.41,5.41,0,0,1,2.17,3.41c.09.47-1.74,1.59-2.84,2-7.74,2.74-14.6,3-19.34-5.6-1.69-3.09-5.09-5.22-7.51-8a23.29,23.29,0,0,1-2.43-4.23Z" transform="translate(-375.21 -159)"/><path d="M656.56,484.27c-.74-6.56,11.14-18.7,16.67-17.84a33.44,33.44,0,0,1,7.74,1.68c.88.37,1.63,3.72,1.3,3.93C674.27,477.17,666.06,481.92,656.56,484.27Z" transform="translate(-375.21 -159)"/><path d="M742.91,219.87a8.65,8.65,0,0,1-8.68,9,8.27,8.27,0,0,1-8.26-8.24c-.13-5.07,3.17-8.69,8.1-8.88A8.2,8.2,0,0,1,742.91,219.87Z" transform="translate(-375.21 -159)"/><path d="M523.63,483.21c-6.82-3.44-12.83-6.36-18.66-9.58-.6-.33-.45-3.59-.21-3.64,3.17-.76,7.44-2.71,9.44-1.37,3.91,2.61,6.59,7.08,9.69,10.85C524.18,479.82,523.83,480.71,523.63,483.21Z" transform="translate(-375.21 -159)"/><path d="M691.81,365.19a30.78,30.78,0,1,1-.74,61.55,31,31,0,0,1-30.55-31.23C660.67,378.53,674.45,365.17,691.81,365.19ZM666.1,393.94c-1.66,4.05-.25,5.47,3.41,6,7.34,1.13,14.63,2.61,22.47,4l-4.8,16.92c3.18,1.68,5.14,1.22,6.11-2.32,1.18-4.28,2.61-8.49,4.07-13.17,4.38,1.07,8.45,1.85,12.38,3.08,3.6,1.13,5.33.13,5.65-4-3.9-1-7.68-2.36-11.56-3-4.15-.69-5.52-2.19-4.51-6.63,1.42-6.3,1.9-12.82,2.87-19.23.5-3.34-1.07-4.5-4.36-4.45l-4.41,27.49Z" transform="translate(-375.21 -159)"/><path d="M613.05,269.94l11.29,12.78-6.47.92c.33,2.26-2.75,5.43,2.19,6.3,1,2.95,2.13,5.87,3,8.86a18.6,18.6,0,0,1,.23,4.16c-1.08-.79-2.57-1.35-3.17-2.41-2.7-4.75-5.15-9.65-7.86-14.82l-7.42,6.66V263.32Z" transform="translate(-375.21 -159)"/></svg>